<svg id="logo" xmlns="http://www.w3.org/2000/svg" xmlns:xlink="http://www.w3.org/1999/xlink" width="199.005" height="92.907" viewBox="0 0 199.005 92.907">
  <defs>
    <clipPath id="clip-path">
      <rect id="Прямоугольник_32" data-name="Прямоугольник 32" width="199.005" height="92.907" fill="none"/>
    </clipPath>
  </defs>
  <g id="Сгруппировать_21" data-name="Сгруппировать 21" clip-path="url(#clip-path)">
    <rect id="Прямоугольник_33" data-name="Прямоугольник 33" width="66" height="36" transform="translate(14 29.585)" fill="#fff"/>
    <path id="Контур_120" data-name="Контур 120" d="M215.3,86.847c-.074,4.051-.368,7.512-2.836,10.974-2.725,3.793-6.813,5.451-11.453,5.451-8.728,0-14.8-5.929-14.8-14.657,0-9.022,6.113-14.951,15.062-14.951,5.708,0,10.127,2.578,12.521,7.77l-6.85,2.873a6.275,6.275,0,0,0-6-4.419c-4.75,0-7.218,4.529-7.218,8.765,0,4.309,2.578,8.691,7.328,8.691,3.13,0,5.524-1.62,5.818-4.824h-5.892V86.847Z" transform="translate(-105.972 -41.923)" fill="#fff"/>
    <path id="Контур_121" data-name="Контур 121" d="M267.782,99.149h.074a6.565,6.565,0,0,1,6.113-3.351h1.289v6.445a5.432,5.432,0,0,0-2.836-.626c-3.719,0-4.64,2.468-4.64,5.708v7.623h-6.7V96.056h6.7Z" transform="translate(-148.586 -54.52)" fill="#fff"/>
    <path id="Контур_122" data-name="Контур 122" d="M317.857,105.034c0,6.408-5.3,10.054-11.379,10.054-6.04,0-11.38-3.609-11.38-10.054s5.3-10.09,11.38-10.09,11.379,3.646,11.379,10.09m-15.688,0a4.309,4.309,0,0,0,8.617,0,4.309,4.309,0,0,0-8.617,0" transform="translate(-167.946 -54.034)" fill="#fff"/>
    <path id="Контур_123" data-name="Контур 123" d="M361.375,96.4v10.09c0,2.394.589,4.088,3.351,4.088s3.351-1.694,3.351-4.088V96.4h6.7v11.379c0,6.224-4.382,8.139-10.053,8.139s-10.054-1.915-10.054-8.139V96.4Z" transform="translate(-201.851 -54.861)" fill="#fff"/>
    <path id="Контур_124" data-name="Контур 124" d="M417.448,97.706h.074a6.708,6.708,0,0,1,5.708-2.762c5.635,0,9.538,4.714,9.538,10.127,0,5.451-3.867,10.017-9.464,10.017a7.73,7.73,0,0,1-5.855-2.431v11.232h-6.7V95.57h6.7Zm-.221,7.328a4.309,4.309,0,0,0,8.617,0,4.309,4.309,0,0,0-8.617,0" transform="translate(-233.763 -54.034)" fill="#fff"/>
    <path id="Контур_125" data-name="Контур 125" d="M151.417,92.838c0,3.387-2.581,3.387-5.192,3.387H145.01V89.3h1.215c2.8,0,5.192.039,5.192,3.538" transform="translate(-82.528 -50.822)" fill="#3f6c2b"/>
    <path id="Контур_126" data-name="Контур 126" d="M59.617,0C31.566,0,0,22.3,0,51.684c0,26.3,30.192,41.222,48.19,41.222,25.969,0,43.377-21.466,43.377-56.76C91.567,16,79.7,0,59.617,0M38.874,41.976a7.845,7.845,0,0,0-6.338-3.055c-4.417,0-7.4,3.387-7.4,7.7a7.2,7.2,0,0,0,7.51,7.549,8.31,8.31,0,0,0,6.226-2.947v8.656A20.459,20.459,0,0,1,32.5,61.164a15.466,15.466,0,0,1-10.423-4.089,13.578,13.578,0,0,1-4.455-10.492,14.513,14.513,0,0,1,4.089-10.164,15.037,15.037,0,0,1,10.57-4.494,16.961,16.961,0,0,1,6.592,1.4Zm11.673,18.45H43.329V32.661h7.217Zm16.02-9.208H62.482v9.208H55.26V32.661H66.308c5.968,0,10.091,2.762,10.091,9.13,0,6.558-3.533,9.428-9.833,9.428" fill="#3f6c2b"/>
    <path id="Контур_127" data-name="Контур 127" d="M266.446,73.065V63h6.2v2.009h-4v2.145h3.694v2.009h-3.694v3.9Z" transform="translate(-151.639 -35.857)" fill="#fff"/>
    <path id="Контур_128" data-name="Контур 128" d="M283.078,73.613V71.906c0-1.511.689-2.976,3.225-2.976s3.225,1.465,3.225,2.976v1.707c0,1.511-.689,2.976-3.225,2.976s-3.225-1.465-3.225-2.976m4.339.061V71.845a1.115,1.115,0,0,0-2.228,0v1.828a1.115,1.115,0,0,0,2.228,0" transform="translate(-161.105 -39.229)" fill="#fff"/>
    <path id="Контур_129" data-name="Контур 129" d="M300.766,73.613V71.906c0-1.511.689-2.976,3.225-2.976s3.225,1.465,3.225,2.976v1.707c0,1.511-.689,2.976-3.225,2.976s-3.225-1.465-3.225-2.976m4.339.061V71.845a1.115,1.115,0,0,0-2.229,0v1.828a1.115,1.115,0,0,0,2.229,0" transform="translate(-171.172 -39.229)" fill="#fff"/>
    <path id="Контур_130" data-name="Контур 130" d="M318.454,67.478c0-1.737.733-2.719,2.4-2.719a8.462,8.462,0,0,1,1.817.212V61.9l2.111-.3V72.268H323.13l-.22-.589a4.507,4.507,0,0,1-2.2.74c-1.451,0-2.257-.922-2.257-2.719Zm4.222-.649a6.188,6.188,0,0,0-1.349-.181c-.557,0-.762.347-.762.831V69.7c0,.514.205.831.762.831a2.305,2.305,0,0,0,1.349-.574Z" transform="translate(-181.238 -35.059)" fill="#fff"/>
    <path id="Контур_131" data-name="Контур 131" d="M340.042,73.018a7.844,7.844,0,0,1-3.152-.649l.366-1.753a9.033,9.033,0,0,0,2.815.483c1.128,0,1.348-.227,1.348-1.072,0-.907-.043-1.012-1.642-1.375-2.36-.529-2.711-1.013-2.711-3.188,0-2.009.688-2.81,3.371-2.81a13.839,13.839,0,0,1,2.961.332l-.22,1.9a14.453,14.453,0,0,0-2.712-.287c-.982,0-1.2.181-1.2.922,0,.967.044.982,1.584,1.359,2.638.65,2.77,1.178,2.77,3.158,0,1.994-.63,2.976-3.576,2.976" transform="translate(-191.731 -35.658)" fill="#fff"/>
    <path id="Контур_132" data-name="Контур 132" d="M357.2,73.522v.212c0,.846.323,1.072,1.29,1.072a8.1,8.1,0,0,0,2.169-.317l.308,1.631a8.275,8.275,0,0,1-2.683.468c-2.316,0-3.2-1.178-3.2-2.991V71.875c0-1.586.689-2.946,3.064-2.946s2.887,1.45,2.887,3.052v1.541Zm1.847-1.949c0-.514-.147-.937-.879-.937a.849.849,0,0,0-.967.937v.318h1.847Z" transform="translate(-202.087 -39.229)" fill="#fff"/>
    <path id="Контур_133" data-name="Контур 133" d="M374.579,71.951v4.487h-2.111V69.081h1.759l.146.71a6.776,6.776,0,0,1,1.921-.861l.176,2.054a10.224,10.224,0,0,0-1.891.967" transform="translate(-211.979 -39.229)" fill="#fff"/>
    <path id="Контур_134" data-name="Контур 134" d="M387.612,76.637h-2.7l-2.244-7.357h2.141l1.451,5.212,1.451-5.212h2.14Z" transform="translate(-217.786 -39.429)" fill="#fff"/>
    <path id="Контур_135" data-name="Контур 135" d="M401.721,61.777h2.111v2.311h-2.111Zm0,3.233h2.111v7.357h-2.111Z" transform="translate(-228.627 -35.158)" fill="#fff"/>
    <path id="Контур_136" data-name="Контур 136" d="M412.131,73.627c0,.756.308,1.1,1.158,1.1a5.912,5.912,0,0,0,1.465-.181l.264,1.813a7.386,7.386,0,0,1-1.729.227c-2.316,0-3.269-.891-3.269-2.991V71.921c0-2.1.952-2.992,3.269-2.992a7.41,7.41,0,0,1,1.729.227l-.264,1.813a7.159,7.159,0,0,0-1.465-.181c-.85,0-1.158.347-1.158,1.1Z" transform="translate(-233.35 -39.229)" fill="#fff"/>
    <path id="Контур_137" data-name="Контур 137" d="M425.973,73.522v.212c0,.846.322,1.072,1.29,1.072a8.1,8.1,0,0,0,2.169-.317l.308,1.631a8.274,8.274,0,0,1-2.683.468c-2.316,0-3.2-1.178-3.2-2.991V71.875c0-1.586.689-2.946,3.064-2.946s2.887,1.45,2.887,3.052v1.541Zm1.847-1.949c0-.514-.147-.937-.879-.937a.849.849,0,0,0-.967.937v.318h1.847Z" transform="translate(-241.228 -39.229)" fill="#fff"/>
  </g>
</svg>
